# xmcd
#
# Track frame offsets:
#	150
#	12250
#	30707
#
# Disc length: 702 seconds
#
# Revision: 1
# Processed by: cddbd v1.5.1PL0 Copyright (c) Steve Scherf et al.
# Submitted via: dBpowerAMP V4.0
#
DISCID=1902bc03
DTITLE=Idaho - Pomegranate Bleeding ep
DYEAR=1996
DGENRE=AlternRock
TTITLE0=Pomegranate Bleeding
TTITLE1=Shame
TTITLE2=The Right Escape
EXTD=
EXTT0=
EXTT1=
EXTT2=
PLAYORDER=
